<svg version="1.1" id="Layer_1" xmlns="http://www.w3.org/2000/svg" xmlns:xlink="http://www.w3.org/1999/xlink" x="0px" y="0px"
	 width="100%" viewBox="0 0 752 544" enable-background="new 0 0 752 544" xml:space="preserve">
<path fill="#000000" opacity="1.000000" stroke="none" 
	d="
M374.288269,268.731598 
	C355.280518,253.048737 334.751740,240.395432 312.944458,229.816483 
	C295.151611,221.185013 286.144135,204.453918 288.804260,184.240479 
	C291.002136,167.539749 304.845367,153.164413 322.798706,150.079758 
	C334.925049,147.996262 346.132111,151.077042 356.330322,158.298859 
	C387.562958,180.416061 417.079102,204.546326 441.915405,233.784714 
	C459.146545,254.069992 476.315430,274.593353 487.095093,299.387848 
	C499.190674,327.209076 503.762939,355.839874 492.154236,384.744659 
	C478.789948,418.020538 454.341583,439.782318 419.449493,449.151276 
	C392.768890,456.315338 366.022461,454.395447 339.364716,448.916199 
	C309.176605,442.711334 280.563751,431.919128 252.810608,418.696320 
	C235.655151,410.522675 218.921631,401.573212 202.681122,391.698059 
	C187.095932,382.221375 179.849197,366.103851 182.792526,347.237122 
	C185.328415,330.981995 197.721176,317.939606 215.092499,314.424774 
	C227.110306,311.993164 238.755966,313.719482 248.682266,321.634369 
	C268.123901,337.136383 288.159210,351.693451 310.424530,362.996124 
	C330.493286,373.183746 351.567841,380.189087 373.821075,383.435577 
	C392.755615,386.197906 411.312042,384.596130 429.264618,377.551544 
	C436.007202,374.905762 436.659821,373.985321 435.521881,366.769165 
	C430.710175,336.255768 416.167145,310.700836 395.362518,288.398895 
	C388.882477,281.452484 382.054413,274.839996 374.288269,268.731598 
z"/>
<path fill="#000000" opacity="1.000000" stroke="none" 
	d="
M527.872559,161.103546 
	C545.099548,180.157700 546.031738,202.690247 529.813965,221.313965 
	C518.323914,234.508545 503.046295,237.977432 486.584015,233.745026 
	C471.076385,229.758041 460.686249,219.304611 456.846985,203.644531 
	C451.260803,180.859131 461.664215,160.018265 482.913239,152.198044 
	C499.143097,146.225006 514.383057,149.337723 527.872559,161.103546 
z"/>
</svg>